
        <svg xmlns="http://www.w3.org/2000/svg" xmlns:xlink="http://www.w3.org/1999/xlink" version="1.1" width="3127.6595744680853" 
        height="1397.872340425532" viewBox="0 0 3127.6595744680853 1397.872340425532">
			<rect fill="#111111" width="3127.6595744680853" height="1397.872340425532"/>
			<g transform="scale(6.382978723404255) translate(10, 10)">
				<defs id="SvgjsDefs2453"><linearGradient id="SvgjsLinearGradient2460"><stop id="SvgjsStop2461" stop-color="#8f5e25" offset="0"></stop><stop id="SvgjsStop2462" stop-color="#fbf4a1" offset="0.5"></stop><stop id="SvgjsStop2463" stop-color="#8f5e25" offset="1"></stop></linearGradient><linearGradient id="SvgjsLinearGradient2464"><stop id="SvgjsStop2465" stop-color="#8f5e25" offset="0"></stop><stop id="SvgjsStop2466" stop-color="#fbf4a1" offset="0.5"></stop><stop id="SvgjsStop2467" stop-color="#8f5e25" offset="1"></stop></linearGradient><linearGradient id="SvgjsLinearGradient2468"><stop id="SvgjsStop2469" stop-color="#8f5e25" offset="0"></stop><stop id="SvgjsStop2470" stop-color="#fbf4a1" offset="0.5"></stop><stop id="SvgjsStop2471" stop-color="#8f5e25" offset="1"></stop></linearGradient></defs><g id="SvgjsG2454" featureKey="rootContainer" transform="matrix(1,0,0,1,0,0)" fill="url(#SvgjsLinearGradient2460)"><path xmlns="http://www.w3.org/2000/svg" fill-rule="evenodd" d=" M0,0 H470 V199 H0,0 z M2,2 H468 V197 H2,2 z M6,6 H464 V193 H6 z M8,8 H462 V191 H6,8 z "></path></g><g id="SvgjsG2455" featureKey="symbolFeature-0" transform="matrix(0.31525434314022,0,0,0.31525434314022,50.00780367062621,49.90623569249742)" fill="url(#SvgjsLinearGradient2464)"><defs xmlns="http://www.w3.org/2000/svg"></defs><g xmlns="http://www.w3.org/2000/svg"><path class="fil0" d="M153 178c-29,-79 -91,-34 -132,-150 -14,-45 -11,17 -4,28 -32,-23 -10,23 -5,35 -15,14 -1,23 10,43 -17,18 -3,20 15,40 -10,16 0,13 19,21 -16,35 57,18 70,15 -13,41 -44,72 -92,94 7,1 14,3 22,4 9,12 6,9 20,-2 8,18 13,4 26,-10 20,16 33,-31 44,-53 1,5 -1,12 -3,17 100,-34 23,-122 91,-103 -2,-3 -4,-6 -6,-9 -3,-28 -40,-51 -75,30z" style="fill: url(#SvgjsLinearGradient2464);"></path><path class="fil0" d="M92 18c-1,-47 -15,13 -12,26 -24,-31 -15,20 -15,32 -15,1 -6,12 4,20 14,12 30,19 46,28 18,11 30,24 38,42 17,-34 -56,-51 -61,-148z" style="fill: url(#SvgjsLinearGradient2464);"></path></g></g><g id="SvgjsG2456" featureKey="nameFeature-0" transform="matrix(2.9650353477920017,0,0,2.9650353477920017,141.33146931805842,60.92140137343145)" fill="url(#SvgjsLinearGradient2468)"><path d="M12.96 18.5 c-1.24 1.12 -2.9 1.7 -4.76 1.7 c-3.92 0 -7.3 -2.94 -7.3 -7.2 s3.38 -7.2 7.3 -7.2 c1.84 0 3.48 0.6 4.68 1.66 l-1.76 1.98 c-0.74 -0.52 -1.74 -0.9 -2.76 -0.9 c-2.52 0 -4.42 1.86 -4.42 4.46 s1.9 4.46 4.42 4.46 c1.06 0 2.1 -0.4 2.86 -1 z M22.759999999999998 6 l2.92 0 l0 8.92 c0 3.4 -2.46 5.38 -5.4 5.38 s-5.42 -1.98 -5.42 -5.38 l0 -8.92 l2.92 0 l0 8.94 c0 2.04 1.34 2.62 2.5 2.62 c1.14 0 2.48 -0.58 2.48 -2.62 l0 -8.94 z M37.58 6 l0 2.68 l-3.48 0 l0 11.32 l-2.92 0 l0 -11.32 l-3.5 0 l0 -2.68 l9.9 0 z M42.5 17.32 l5.92 0 l0 2.68 l-6.32 0 l-2.52 0 l0 -14 l2.92 0 l5.74 0 l0 2.68 l-5.74 0 l0 2.96 l4.34 0 l0 2.64 l-4.34 0 l0 3.04 z M55.42 6 c3.14 0 5.18 1.9 5.18 4.76 c0 2.82 -2.04 4.58 -5.18 4.58 l-1.98 0 l0 4.66 l-2.92 0 l0 -14 l4.9 0 z M55.24 12.82 c1.44 0 2.44 -0.56 2.44 -2.06 c0 -1.48 -1 -2.08 -2.44 -2.08 l-1.8 0 l0 4.14 l1.8 0 z M65.42 17.32 l5.92 0 l0 2.68 l-6.32 0 l-2.52 0 l0 -14 l2.92 0 l5.74 0 l0 2.68 l-5.74 0 l0 2.96 l4.34 0 l0 2.64 l-4.34 0 l0 3.04 z M82.94 6 l0 2.68 l-3.48 0 l0 11.32 l-2.92 0 l0 -11.32 l-3.5 0 l0 -2.68 l9.9 0 z M88.92 5.76 c2.46 0 4.02 1.54 4.76 2.9 l-2.16 1.28 c-0.76 -1.06 -1.5 -1.6 -2.6 -1.6 c-0.98 0 -1.7 0.58 -1.7 1.38 s0.46 1.22 1.56 1.62 l0.96 0.34 c3.1 1.1 4.32 2.48 4.32 4.4 c0 2.82 -2.68 4.22 -5.06 4.22 c-2.52 0 -4.48 -1.5 -5.16 -3.46 l2.24 -1.18 c0.5 1.02 1.34 2 2.92 2 c1.14 0 2.02 -0.5 2.02 -1.54 c0 -1 -0.6 -1.44 -2.12 -2.02 l-0.86 -0.3 c-2.06 -0.74 -3.72 -1.76 -3.72 -4.2 c0 -2.24 2.1 -3.84 4.6 -3.84 z"></path></g>
			</g>
		</svg>
	